<svg width="70" height="70" viewBox="0 0 70 70" fill="none" xmlns="http://www.w3.org/2000/svg">
<path d="M65.0781 7.65625H4.92188C3.90694 7.65737 2.93389 8.06105 2.21622 8.77872C1.49855 9.49639 1.09487 10.4694 1.09375 11.4844V49.7656C1.09487 50.7806 1.49855 51.7536 2.21622 52.4713C2.93389 53.1889 3.90694 53.5926 4.92188 53.5938H26.8215L25.509 56.875H19.6875C19.3974 56.875 19.1192 56.9902 18.9141 57.1954C18.709 57.4005 18.5938 57.6787 18.5938 57.9688V60.1562H12.0312C11.7412 60.1562 11.463 60.2715 11.2579 60.4766C11.0527 60.6817 10.9375 60.9599 10.9375 61.25C10.9375 61.5401 11.0527 61.8183 11.2579 62.0234C11.463 62.2285 11.7412 62.3438 12.0312 62.3438H57.9688C58.2588 62.3438 58.537 62.2285 58.7421 62.0234C58.9473 61.8183 59.0625 61.5401 59.0625 61.25C59.0625 60.9599 58.9473 60.6817 58.7421 60.4766C58.537 60.2715 58.2588 60.1562 57.9688 60.1562H51.4062V57.9688C51.4062 57.6787 51.291 57.4005 51.0859 57.1954C50.8808 56.9902 50.6026 56.875 50.3125 56.875H44.491L43.1785 53.5938H65.0781C66.0931 53.5926 67.0661 53.1889 67.7838 52.4713C68.5014 51.7536 68.9051 50.7806 68.9062 49.7656V11.4844C68.9051 10.4694 68.5014 9.49639 67.7838 8.77872C67.0661 8.06105 66.0931 7.65737 65.0781 7.65625V7.65625ZM49.2188 59.0625V60.1562H20.7812V59.0625H49.2188ZM27.866 56.875L29.1785 53.5938H40.8215L42.134 56.875H27.866ZM66.7188 49.7656C66.7184 50.2006 66.5454 50.6177 66.2378 50.9253C65.9302 51.2329 65.5131 51.4059 65.0781 51.4062H4.92188C4.48687 51.4059 4.06978 51.2329 3.76218 50.9253C3.45458 50.6177 3.28161 50.2006 3.28125 49.7656V47.0312H66.7188V49.7656ZM66.7188 44.8438H3.28125V11.4844C3.28161 11.0494 3.45458 10.6323 3.76218 10.3247C4.06978 10.0171 4.48687 9.84411 4.92188 9.84375H65.0781C65.5131 9.84411 65.9302 10.0171 66.2378 10.3247C66.5454 10.6323 66.7184 11.0494 66.7188 11.4844V44.8438Z" fill="white"/>
<path d="M30.0248 35.9144C30.1449 35.9932 30.2793 36.0476 30.4204 36.0745C30.5615 36.1013 30.7065 36.1001 30.8472 36.0709C30.9878 36.0417 31.1213 35.9851 31.2401 35.9043C31.3589 35.8235 31.4605 35.7201 31.5393 35.6L40.1526 22.475C40.3118 22.2325 40.3681 21.9366 40.3092 21.6526C40.2503 21.3686 40.0809 21.1196 39.8384 20.9604C39.5959 20.8012 39.3001 20.7449 39.0161 20.8038C38.732 20.8627 38.4831 21.0321 38.3239 21.2746L29.7106 34.3996C29.6317 34.5197 29.5773 34.6541 29.5504 34.7952C29.5235 34.9364 29.5247 35.0814 29.5539 35.2221C29.583 35.3628 29.6396 35.4963 29.7204 35.6151C29.8012 35.7339 29.9046 35.8356 30.0248 35.9144Z" fill="white"/>
<path d="M41.956 35.8403C42.1789 36.026 42.4664 36.1155 42.7553 36.0892C43.0442 36.0629 43.3108 35.923 43.4964 35.7001L48.9652 29.1376C49.129 28.9411 49.2187 28.6933 49.2187 28.4375C49.2187 28.1817 49.129 27.9339 48.9652 27.7374L43.4964 21.1748C43.4048 21.0636 43.2921 20.9715 43.1647 20.904C43.0374 20.8364 42.8979 20.7947 42.7544 20.7813C42.6109 20.7678 42.4661 20.7828 42.3284 20.8255C42.1907 20.8682 42.0628 20.9377 41.9521 21.03C41.8413 21.1222 41.7499 21.2355 41.6831 21.3632C41.6163 21.4909 41.5753 21.6306 41.5627 21.7742C41.55 21.9178 41.5659 22.0625 41.6093 22.2C41.6528 22.3374 41.723 22.4649 41.8159 22.5751L46.7011 28.4375L41.8159 34.2999C41.6302 34.5227 41.5407 34.8102 41.567 35.0991C41.5932 35.388 41.7332 35.6546 41.956 35.8403V35.8403Z" fill="white"/>
<path d="M26.5035 35.7001C26.5951 35.8114 26.7078 35.9034 26.8352 35.971C26.9625 36.0385 27.102 36.0802 27.2455 36.0937C27.389 36.1072 27.5338 36.0921 27.6715 36.0494C27.8092 36.0068 27.9371 35.9373 28.0478 35.845C28.1586 35.7527 28.25 35.6395 28.3168 35.5118C28.3836 35.384 28.4246 35.2443 28.4372 35.1007C28.4499 34.9571 28.434 34.8125 28.3906 34.675C28.3471 34.5376 28.2769 34.4101 28.184 34.2998L23.2988 28.4375L28.184 22.5751C28.2769 22.4649 28.3471 22.3374 28.3906 22.1999C28.434 22.0625 28.4499 21.9178 28.4372 21.7742C28.4246 21.6306 28.3836 21.4909 28.3168 21.3632C28.25 21.2355 28.1586 21.1222 28.0478 21.03C27.9371 20.9377 27.8092 20.8682 27.6715 20.8255C27.5338 20.7828 27.389 20.7678 27.2455 20.7813C27.102 20.7947 26.9625 20.8364 26.8352 20.904C26.7078 20.9715 26.5951 21.0636 26.5035 21.1748L21.0347 27.7373C20.8709 27.9339 20.7812 28.1816 20.7812 28.4375C20.7812 28.6933 20.8709 28.9411 21.0347 29.1376L26.5035 35.7001Z" fill="white"/>
</svg>
