<svg width="70" height="71" viewBox="0 0 70 71" fill="none" xmlns="http://www.w3.org/2000/svg">
<path d="M65.0781 8.63977H4.92188C3.90694 8.64089 2.93389 9.04457 2.21622 9.76224C1.49855 10.4799 1.09487 11.453 1.09375 12.4679V50.7491C1.09487 51.7641 1.49855 52.7371 2.21622 53.4548C2.93389 54.1725 3.90694 54.5761 4.92188 54.5773H26.8215L25.509 57.8585H19.6875C19.3974 57.8585 19.1192 57.9738 18.9141 58.1789C18.709 58.384 18.5938 58.6622 18.5938 58.9523V61.1398H12.0312C11.7412 61.1398 11.463 61.255 11.2579 61.4601C11.0527 61.6652 10.9375 61.9434 10.9375 62.2335C10.9375 62.5236 11.0527 62.8018 11.2579 63.0069C11.463 63.212 11.7412 63.3273 12.0312 63.3273H57.9688C58.2588 63.3273 58.537 63.212 58.7421 63.0069C58.9473 62.8018 59.0625 62.5236 59.0625 62.2335C59.0625 61.9434 58.9473 61.6652 58.7421 61.4601C58.537 61.255 58.2588 61.1398 57.9688 61.1398H51.4062V58.9523C51.4062 58.6622 51.291 58.384 51.0859 58.1789C50.8808 57.9738 50.6026 57.8585 50.3125 57.8585H44.491L43.1785 54.5773H65.0781C66.0931 54.5761 67.0661 54.1725 67.7838 53.4548C68.5014 52.7371 68.9051 51.7641 68.9062 50.7491V12.4679C68.9051 11.453 68.5014 10.4799 67.7838 9.76224C67.0661 9.04457 66.0931 8.64089 65.0781 8.63977ZM49.2188 60.046V61.1398H20.7812V60.046H49.2188ZM27.866 57.8585L29.1785 54.5773H40.8215L42.134 57.8585H27.866ZM66.7188 50.7491C66.7184 51.1842 66.5454 51.6012 66.2378 51.9088C65.9302 52.2164 65.5131 52.3894 65.0781 52.3898H4.92188C4.48687 52.3894 4.06978 52.2164 3.76218 51.9088C3.45458 51.6012 3.28161 51.1842 3.28125 50.7491V48.0148H66.7188V50.7491ZM66.7188 45.8273H3.28125V12.4679C3.28161 12.0329 3.45458 11.6158 3.76218 11.3082C4.06978 11.0006 4.48687 10.8276 4.92188 10.8273H65.0781C65.5131 10.8276 65.9302 11.0006 66.2378 11.3082C66.5454 11.6158 66.7184 12.0329 66.7188 12.4679V45.8273Z" fill="#592DA1"/>
<path d="M30.0248 36.8979C30.1449 36.9767 30.2793 37.0311 30.4204 37.058C30.5616 37.0848 30.7066 37.0836 30.8472 37.0544C30.9879 37.0252 31.1214 36.9686 31.2401 36.8878C31.3589 36.807 31.4606 36.7036 31.5394 36.5835L40.1526 23.4585C40.3118 23.216 40.3682 22.9202 40.3092 22.6361C40.2503 22.3521 40.081 22.1031 39.8385 21.9439C39.596 21.7847 39.3002 21.7284 39.0161 21.7873C38.7321 21.8463 38.4831 22.0156 38.3239 22.2581L29.7106 35.3831C29.6318 35.5032 29.5773 35.6376 29.5504 35.7788C29.5235 35.9199 29.5247 36.0649 29.5539 36.2056C29.5831 36.3463 29.6397 36.4798 29.7205 36.5986C29.8013 36.7174 29.9047 36.8191 30.0248 36.8979Z" fill="#592DA1"/>
<path d="M41.9561 36.8238C42.1789 37.0095 42.4664 37.099 42.7553 37.0727C43.0442 37.0465 43.3108 36.9065 43.4965 36.6837L48.9652 30.1211C49.129 29.9246 49.2187 29.6769 49.2187 29.421C49.2187 29.1652 49.129 28.9174 48.9652 28.7209L43.4965 22.1584C43.4048 22.0471 43.2921 21.9551 43.1647 21.8875C43.0374 21.82 42.8979 21.7783 42.7544 21.7648C42.6109 21.7513 42.4661 21.7664 42.3284 21.809C42.1907 21.8517 42.0629 21.9212 41.9521 22.0135C41.8414 22.1058 41.7499 22.219 41.6831 22.3467C41.6163 22.4745 41.5754 22.6141 41.5627 22.7577C41.5501 22.9013 41.5659 23.046 41.6094 23.1835C41.6528 23.3209 41.723 23.4484 41.8159 23.5586L46.7012 29.421L41.8159 35.2834C41.6303 35.5062 41.5407 35.7937 41.567 36.0826C41.5933 36.3715 41.7332 36.6381 41.9561 36.8238Z" fill="#592DA1"/>
<path d="M26.5035 36.6836C26.5951 36.7949 26.7078 36.887 26.8352 36.9545C26.9625 37.022 27.102 37.0638 27.2455 37.0772C27.389 37.0907 27.5338 37.0756 27.6715 37.033C27.8092 36.9903 27.9371 36.9208 28.0478 36.8285C28.1586 36.7363 28.25 36.623 28.3168 36.4953C28.3836 36.3675 28.4246 36.2279 28.4372 36.0843C28.4499 35.9407 28.434 35.796 28.3906 35.6585C28.3471 35.5211 28.2769 35.3936 28.184 35.2834L23.2988 29.421L28.184 23.5586C28.2769 23.4484 28.3471 23.3209 28.3906 23.1835C28.434 23.046 28.4499 22.9013 28.4372 22.7577C28.4246 22.6141 28.3836 22.4745 28.3168 22.3467C28.25 22.219 28.1586 22.1058 28.0478 22.0135C27.9371 21.9212 27.8092 21.8517 27.6715 21.809C27.5338 21.7664 27.389 21.7513 27.2455 21.7648C27.102 21.7783 26.9625 21.82 26.8352 21.8875C26.7078 21.9551 26.5951 22.0471 26.5035 22.1584L21.0347 28.7209C20.8709 28.9174 20.7812 29.1652 20.7812 29.421C20.7812 29.6768 20.8709 29.9246 21.0347 30.1211L26.5035 36.6836Z" fill="#592DA1"/>
</svg>
