<svg width="16" height="16" viewBox="0 0 16 16" fill="none" xmlns="http://www.w3.org/2000/svg">
<path d="M3.49234 9.87453C3.75822 10.8668 4.3441 11.7436 5.1591 12.369C5.97411 12.9944 6.9727 13.3334 7.99999 13.3334C9.02728 13.3334 10.0259 12.9944 10.8409 12.369C11.6559 11.7436 12.2418 10.8668 12.5076 9.87453" stroke="white" stroke-width="2"/>
<path d="M7.99999 8.66663L7.37529 9.44749L7.99999 9.94725L8.62468 9.44749L7.99999 8.66663ZM8.99999 2.66663C8.99999 2.11434 8.55228 1.66663 7.99999 1.66663C7.44771 1.66663 6.99999 2.11434 6.99999 2.66663L8.99999 2.66663ZM4.66666 5.99996L4.04196 6.78083L7.37529 9.44749L7.99999 8.66663L8.62469 7.88576L5.29135 5.21909L4.66666 5.99996ZM7.99999 8.66663L8.62468 9.44749L11.958 6.78083L11.3333 5.99996L10.7086 5.21909L7.3753 7.88576L7.99999 8.66663ZM7.99999 8.66663L8.99999 8.66663L8.99999 2.66663L7.99999 2.66663L6.99999 2.66663L6.99999 8.66663L7.99999 8.66663Z" fill="white"/>
</svg>
