<svg width="70" height="71" viewBox="0 0 70 71" fill="none" xmlns="http://www.w3.org/2000/svg">
<g clip-path="url(#clip0_1_625)">
<path d="M32.5391 51.7732C31.9726 51.7732 31.5137 52.2323 31.5137 52.7986C31.5137 53.3649 31.9726 53.824 32.5391 53.824H37.4609C38.0274 53.824 38.4863 53.3649 38.4863 52.7986C38.4863 52.2323 38.0274 51.7732 37.4609 51.7732H32.5391Z" fill="#592DA1"/>
<path d="M12.3047 35.8514H19.0827C19.4966 36.9289 20.5397 37.6971 21.7611 37.6971C22.9826 37.6971 24.0256 36.9289 24.4396 35.8514H25.7943C26.3607 35.8514 26.8197 35.3923 26.8197 34.8261C26.8197 34.2598 26.3607 33.8007 25.7943 33.8007H24.4396C24.0256 32.7232 22.9826 31.955 21.7611 31.955C20.5397 31.955 19.4966 32.7232 19.0827 33.8007H12.3047C11.7383 33.8007 11.2793 34.2598 11.2793 34.8261C11.2793 35.3923 11.7383 35.8514 12.3047 35.8514ZM21.7611 34.0057C22.2135 34.0057 22.5814 34.3736 22.5814 34.8261C22.5814 35.2785 22.2135 35.6464 21.7611 35.6464C21.3087 35.6464 20.9408 35.2785 20.9408 34.8261C20.9408 34.3736 21.3087 34.0057 21.7611 34.0057Z" fill="#592DA1"/>
<path d="M12.3047 29.9725H13.6139C14.0279 31.05 15.0709 31.8182 16.2924 31.8182C17.5138 31.8182 18.5568 31.05 18.9708 29.9725H25.7943C26.3607 29.9725 26.8197 29.5134 26.8197 28.9471C26.8197 28.3809 26.3607 27.9218 25.7943 27.9218H18.9708C18.5568 26.8443 17.5138 26.076 16.2924 26.076C15.0709 26.076 14.0279 26.8443 13.6139 27.9218H12.3047C11.7383 27.9218 11.2793 28.3809 11.2793 28.9471C11.2793 29.5134 11.7383 29.9725 12.3047 29.9725ZM16.2924 28.1268C16.7448 28.1268 17.1127 28.4947 17.1127 28.9471C17.1127 29.3995 16.7448 29.7675 16.2924 29.7675C15.84 29.7675 15.4721 29.3995 15.4721 28.9471C15.4721 28.4947 15.84 28.1268 16.2924 28.1268Z" fill="#592DA1"/>
<path d="M25.9994 20.5389C26.5657 20.5389 27.0248 20.0799 27.0248 19.5135C27.0248 18.9472 26.5657 18.4882 25.9994 18.4882C25.4331 18.4882 24.974 18.9472 24.974 19.5135C24.974 20.0799 25.4331 20.5389 25.9994 20.5389Z" fill="#592DA1"/>
<path d="M23.1738 20.5389C23.7401 20.5389 24.1992 20.0799 24.1992 19.5135C24.1992 18.9472 23.7401 18.4882 23.1738 18.4882C22.6075 18.4882 22.1484 18.9472 22.1484 19.5135C22.1484 20.0799 22.6075 20.5389 23.1738 20.5389Z" fill="#592DA1"/>
<path d="M20.3483 20.5389C20.9146 20.5389 21.3737 20.0799 21.3737 19.5135C21.3737 18.9472 20.9146 18.4882 20.3483 18.4882C19.782 18.4882 19.3229 18.9472 19.3229 19.5135C19.3229 20.0799 19.782 20.5389 20.3483 20.5389Z" fill="#592DA1"/>
<path d="M66.9238 7.8855H66.5398L66.8262 7.59908C67.6841 6.74117 67.6841 5.34513 66.8262 4.48722L64.5816 2.24257C63.7237 1.3848 62.3278 1.3848 61.4697 2.24257L55.8272 7.88537H3.07617C1.38004 7.88537 0 9.26527 0 10.9615V53.5445C0 55.6177 1.68656 57.3043 3.75977 57.3043H28.0472V64.5579H23.1055C21.7863 64.5579 20.7129 65.6313 20.7129 66.9505V67.975C20.7129 69.2942 21.7863 70.3676 23.1055 70.3676H46.8945C48.2137 70.3676 49.2871 69.2942 49.2871 67.975V66.9505C49.2871 65.6313 48.2137 64.5579 46.8945 64.5579H41.9528V57.3043H52.9102C53.4766 57.3043 53.9355 56.8452 53.9355 56.2789C53.9355 55.7126 53.4766 55.2535 52.9102 55.2535H3.75977C2.81736 55.2535 2.05078 54.4869 2.05078 53.5445V50.5093H67.9492V53.5445C67.9492 54.4869 67.1826 55.2535 66.2402 55.2535H57.6953C57.1289 55.2535 56.6699 55.7126 56.6699 56.2789C56.6699 56.8452 57.1289 57.3043 57.6953 57.3043H66.2402C68.3134 57.3043 70 55.6177 70 53.5445V10.9617C70 9.26554 68.62 7.8855 66.9238 7.8855ZM46.8945 66.6088C47.0831 66.6088 47.2363 66.7622 47.2363 66.9506V67.9752C47.2363 68.1636 47.0831 68.317 46.8945 68.317H23.1055C22.9169 68.317 22.7637 68.1636 22.7637 67.9752V66.9506C22.7637 66.7622 22.9169 66.6088 23.1055 66.6088H46.8945ZM30.0979 57.3045H39.9022V64.5582H30.0979V57.3045ZM62.9199 3.69289C62.9784 3.63451 63.0733 3.63464 63.1315 3.69289L65.376 5.9374C65.4344 5.99578 65.4344 6.0908 65.376 6.14904L63.2343 8.29074L60.7782 5.83458L62.9199 3.69289ZM59.328 7.28476L61.784 9.74091L61.0688 10.4561L58.6128 7.99994L59.328 7.28476ZM57.1627 9.45011L59.6188 11.9063L47.4849 24.0402L45.0287 21.584L57.1627 9.45011ZM55.6445 18.8248C57.0392 18.8248 58.1738 19.9594 58.1738 21.3541C58.1738 22.7487 57.0392 23.8834 55.6445 23.8834C54.2499 23.8834 53.1152 22.7487 53.1152 21.3541C53.1152 21.3378 53.1174 21.3221 53.1177 21.3058L55.5967 18.8272C55.6127 18.827 55.6284 18.8248 55.6445 18.8248ZM45.7043 25.1599L42.6695 26.3994L43.909 23.3647L45.7043 25.1599ZM67.9492 48.4588H2.05078V10.9617C2.05078 10.3963 2.5107 9.93629 3.07617 9.93629H53.7765L52.213 11.4998H17.3633C16.7969 11.4998 16.3379 11.9589 16.3379 12.5252C16.3379 13.0915 16.7969 13.5506 17.3633 13.5506H50.1624L42.9298 20.7836C42.7254 20.9897 42.5656 21.2303 42.4555 21.4997L40.1651 27.1073C39.955 27.6224 40.0734 28.2093 40.4667 28.6025C40.7307 28.8665 41.0818 29.0065 41.4399 29.0065C41.6154 29.0065 41.7925 28.9729 41.9619 28.9038L47.5694 26.6135C47.8311 26.5066 48.0651 26.3518 48.2675 26.1556L51.3868 23.0367C52.0588 24.7318 53.7131 25.9343 55.6447 25.9343C58.1701 25.9343 60.2247 23.8797 60.2247 21.3542C60.2247 19.4229 59.0226 17.7688 57.3277 17.0967L60.874 13.5507H64.3349V44.8447H63.7915L60.0754 38.4084C59.7924 37.9178 59.1649 37.7498 58.6748 38.0331C58.1844 38.3162 58.0163 38.9434 58.2995 39.4338L61.4235 44.8447H47.0995L45.5632 42.1837L52.7252 29.7788L55.9068 35.2897C56.19 35.7801 56.8172 35.9483 57.3074 35.665C57.7979 35.3818 57.9659 34.7547 57.6827 34.2643L54.2884 28.3853C53.9621 27.8201 53.3777 27.4826 52.725 27.4826C52.0723 27.4826 51.4879 27.8201 51.1615 28.3853L44.3789 40.1331L35.6762 25.0597C35.3499 24.4945 34.7655 24.1571 34.1127 24.1571C33.4601 24.1571 32.8757 24.4945 32.5493 25.0597L30.2373 29.0643V18.0731C30.2373 16.7539 29.1639 15.6805 27.8447 15.6805H10.2539C8.93471 15.6805 7.86133 16.7539 7.86133 18.0731V40.495C7.86133 41.4374 8.62791 42.204 9.57031 42.204H22.6514L21.1267 44.8448H5.66522V13.5506H12.5781C13.1446 13.5506 13.6035 13.0915 13.6035 12.5252C13.6035 11.9589 13.1446 11.4998 12.5781 11.4998H5.32342C4.38102 11.4998 3.61443 12.2664 3.61443 13.2088V45.1863C3.61443 46.1287 4.38102 46.8953 5.32342 46.8953H64.6767C65.6191 46.8953 66.3857 46.1287 66.3857 45.1863V13.2088C66.3857 12.2664 65.6191 11.4998 64.6767 11.4998H62.9251L64.4889 9.93629H66.9238C67.4893 9.93629 67.9492 10.3963 67.9492 10.9617V48.4588ZM28.1869 23.7519V40.1529H9.91211V23.7519H28.1869ZM9.91211 21.7011V18.0728C9.91211 17.8844 10.0654 17.731 10.2539 17.731H27.8451C28.0336 17.731 28.1869 17.8844 28.1869 18.0728V21.7011H9.91211ZM25.0195 42.2037H28.5287C29.4711 42.2037 30.2377 41.4371 30.2377 40.4947V38.3227C30.4942 38.4457 30.7798 38.5123 31.0789 38.5123C31.7789 38.5123 32.4056 38.1502 32.7555 37.5442L34.5006 34.5217C34.5533 34.4304 34.634 34.4111 34.6921 34.4111C34.7505 34.4111 34.8312 34.4304 34.8838 34.5217L35.9596 36.3851C36.3096 36.9914 36.9365 37.3533 37.6366 37.3533C38.3366 37.3533 38.9635 36.9914 39.3133 36.3852L39.5805 35.9226L44.7315 44.8444H23.4948L25.0195 42.2037ZM30.2377 34.8902V33.1656L34.1132 26.4531L38.3964 33.8718L37.6365 35.1878L36.6598 33.4962C36.2491 32.7849 35.5135 32.3602 34.692 32.3602C33.8706 32.3602 33.135 32.7849 32.7243 33.4962L31.0785 36.3468L30.2377 34.8902Z" fill="#592DA1"/>
</g>
<defs>
<clipPath id="clip0_1_625">
<rect width="70" height="70" fill="white" transform="translate(0 0.983521)"/>
</clipPath>
</defs>
</svg>
