<svg width="300" height="300" viewBox="0 0 300 300" fill="none" xmlns="http://www.w3.org/2000/svg">
<rect width="300" height="300" fill="url(#paint0_linear_10_23)"/>
<g opacity="0.8">
<path d="M51.2003 155.944C51.1998 152.482 51.0975 149.112 51.231 145.751C51.3452 142.874 51.7168 140.006 51.9977 137.137C52.4095 132.93 53.1962 128.783 54.4233 124.746C55.6964 120.559 57.0656 116.392 58.6109 112.298C61.1931 105.457 64.8557 99.1696 69.0253 93.1874C70.6811 90.8117 72.5025 88.5382 74.3936 86.3432C76.6549 83.7183 78.9598 81.1118 81.448 78.7064C84.8799 75.3888 88.5455 72.3342 92.4571 69.5641C97.2016 66.2041 102.156 63.2237 107.392 60.7171C112.695 58.1785 118.191 56.1215 123.876 54.6248C126.906 53.8273 129.977 53.1407 133.067 52.6328C136.413 52.0827 139.794 51.633 143.177 51.441C147.418 51.2004 151.688 51.0433 155.925 51.2515C162.594 51.5792 169.188 52.6693 175.631 54.439C180.883 55.8819 186.006 57.7267 190.989 59.9738C196.584 62.497 201.863 65.5608 206.876 69.0616C209.706 71.0376 212.363 73.2765 214.986 75.5274C217.268 77.486 219.501 79.5264 221.563 81.7121C224.747 85.0877 227.732 88.6378 230.43 92.4365C233.834 97.2304 236.857 102.243 239.371 107.544C242.32 113.763 244.609 120.238 246.181 126.944C246.89 129.97 247.488 133.028 247.967 136.098C248.32 138.36 248.495 140.662 248.579 142.953C248.723 146.901 248.848 150.857 248.761 154.804C248.701 157.513 248.409 160.237 247.97 162.913C247.295 167.033 246.62 171.174 245.548 175.201C244.424 179.425 242.974 183.578 241.412 187.664C238.826 194.429 235.293 200.718 231.071 206.596C229.001 209.477 226.78 212.26 224.487 214.969C222.587 217.213 220.581 219.387 218.447 221.407C215.004 224.666 211.384 227.718 207.498 230.468C202.699 233.864 197.686 236.872 192.384 239.39C187.133 241.885 181.7 243.924 176.07 245.381C173.037 246.166 169.962 246.816 166.88 247.38C164.096 247.89 161.286 248.343 158.468 248.562C155.43 248.798 152.368 248.781 149.317 248.786C146.733 248.79 144.128 248.844 141.568 248.559C137.726 248.13 133.911 247.455 130.093 246.828C125.265 246.035 120.62 244.537 116.032 242.897C111.193 241.167 106.461 239.138 102.049 236.495C98.1664 234.169 94.3355 231.731 90.6642 229.089C87.8811 227.086 85.2715 224.803 82.7904 222.429C79.8888 219.654 77.1652 216.687 74.4457 213.728C70.2693 209.184 66.8615 204.055 63.8989 198.684C61.535 194.397 59.4373 189.923 57.6753 185.357C55.9632 180.921 54.6997 176.295 53.4886 171.687C52.7489 168.872 52.4261 165.942 52.0174 163.05C51.7243 160.977 51.6033 158.879 51.3934 156.794C51.3677 156.539 51.2668 156.291 51.2003 155.944ZM177.943 61.1606C174.52 60.5511 171.117 59.7636 167.67 59.376C163.083 58.8603 158.465 58.4567 153.854 58.3675C147.801 58.2503 141.747 58.5655 135.729 59.3375C132.739 59.7211 129.723 59.9585 126.762 60.5005C123.844 61.0346 120.983 61.8758 118.094 62.5714C114.302 63.4846 110.746 64.9628 107.527 67.1645C104.463 69.2604 102.284 71.9486 102.174 75.8978C102.165 76.2133 101.86 76.6123 101.58 76.8148C96.4524 80.5112 91.7587 84.6559 87.9527 89.7463C85.8702 92.5316 84.2833 95.5913 83.2882 98.8944C82.5668 101.289 82.2087 103.799 81.7719 106.272C80.9613 110.861 81.5761 115.416 82.3205 119.94C82.8751 123.312 83.6171 126.649 83.6004 130.091C83.5805 134.187 82.1741 137.546 78.799 140.085C76.5997 141.74 74.5653 143.629 72.5612 145.524C70.9794 147.019 71.0792 148.165 72.1481 149.883C72.9171 151.119 74.0542 152.155 75.1414 153.156C76.2494 154.176 76.4525 154.562 75.6882 155.774C74.6785 157.375 73.5712 158.914 72.5275 160.494C71.2956 162.359 71.4661 164.478 73.0146 166.117C73.7401 166.885 74.5537 167.569 75.3322 168.296C75.211 168.386 75.1146 168.488 74.9963 168.541C72.3305 169.745 72.162 174.292 74.0269 175.98C74.7834 176.666 75.6745 177.202 76.5031 177.807C77.3921 178.457 77.6856 179.276 77.4171 180.338C77.1568 181.368 76.8768 182.394 76.6444 183.43C75.5875 188.141 77.3702 191.965 81.7589 193.615C84.0767 194.487 86.5965 194.917 89.0646 195.271C92.4107 195.75 95.7888 196.06 99.164 196.267C103.307 196.521 107.454 196.698 111.488 197.761C113.371 198.258 115.296 198.956 116.073 200.924C116.856 202.902 117.371 204.997 117.873 207.072C118.291 208.798 118.506 210.573 118.84 212.32C119.102 213.696 119.147 214.94 117.641 215.719C117.344 215.872 117.04 216.421 117.08 216.745C117.238 218.019 117.574 219.271 117.764 220.543C117.949 221.783 118.178 223.044 118.133 224.286C118.069 226.071 117.687 227.843 117.596 229.628C117.385 233.816 117.269 238.008 117.104 242.199C117.085 242.691 117.216 242.944 117.752 243.09C119.212 243.489 120.649 243.973 122.091 244.434C129.253 246.722 136.629 247.962 144.101 248.33C149.185 248.58 154.316 248.707 159.403 248.003C161.888 247.659 164.404 247.473 166.856 246.974C170.905 246.151 174.966 245.31 178.929 244.157C185.452 242.261 191.666 239.558 197.628 236.286C199.832 235.077 199.845 235.099 198.908 232.793C195.028 223.246 189.756 214.521 183.373 206.449C183.115 206.122 182.915 205.716 182.8 205.314C182.362 203.792 181.979 202.254 181.557 200.728C181.304 199.815 180.687 199.344 179.731 199.342C178.712 199.34 177.694 199.342 176.625 199.342C176.107 197.842 176.11 197.846 176.863 197.396C183.553 193.396 190.195 189.336 196.375 184.548C204.222 178.467 211.085 171.481 216.51 163.15C222.73 153.6 226.408 143.131 227.422 131.771C227.897 126.46 227.913 121.133 227.215 115.829C226.774 112.477 226.355 109.117 225.77 105.788C225.235 102.74 224.195 99.8269 222.559 97.1831C220.988 94.6447 219.057 92.521 215.884 91.9481C215.279 91.8389 214.545 92.0621 214.069 91.1296C211.02 85.1529 207.211 79.694 202.575 74.8254C198.839 70.9018 194.685 67.5324 189.748 65.2245C186.009 63.4772 182.097 62.2095 177.943 61.1606Z" fill="#004E4C"/>
<path d="M178.027 61.1627C182.097 62.2095 186.009 63.4772 189.748 65.2245C194.685 67.5324 198.839 70.9018 202.575 74.8254C207.211 79.694 211.02 85.1529 214.069 91.1296C214.545 92.0621 215.279 91.8389 215.884 91.9481C219.057 92.521 220.988 94.6447 222.559 97.1831C224.195 99.8269 225.235 102.74 225.77 105.788C226.355 109.117 226.774 112.477 227.215 115.829C227.913 121.133 227.897 126.46 227.422 131.771C226.408 143.131 222.73 153.6 216.51 163.15C211.085 171.481 204.222 178.467 196.375 184.548C190.195 189.336 183.553 193.396 176.863 197.396C176.11 197.846 176.107 197.842 176.625 199.342C177.694 199.342 178.712 199.34 179.731 199.342C180.687 199.344 181.304 199.815 181.557 200.728C181.979 202.254 182.362 203.792 182.8 205.314C182.915 205.716 183.115 206.122 183.373 206.449C189.756 214.521 195.028 223.246 198.908 232.793C199.845 235.099 199.832 235.077 197.628 236.286C191.666 239.558 185.452 242.261 178.929 244.157C174.966 245.31 170.905 246.151 166.856 246.974C164.404 247.473 161.888 247.659 159.403 248.003C154.316 248.707 149.185 248.58 144.101 248.33C136.629 247.962 129.253 246.722 122.091 244.434C120.649 243.973 119.212 243.489 117.752 243.09C117.216 242.944 117.085 242.691 117.104 242.199C117.269 238.008 117.385 233.816 117.596 229.628C117.687 227.843 118.069 226.071 118.133 224.286C118.178 223.044 117.949 221.783 117.764 220.543C117.574 219.271 117.238 218.019 117.08 216.745C117.04 216.421 117.344 215.872 117.641 215.719C119.147 214.94 119.102 213.696 118.84 212.32C118.506 210.573 118.291 208.798 117.873 207.072C117.371 204.997 116.856 202.902 116.073 200.924C115.296 198.956 113.371 198.258 111.488 197.761C107.454 196.698 103.307 196.521 99.164 196.267C95.7888 196.06 92.4107 195.75 89.0646 195.271C86.5965 194.917 84.0767 194.487 81.7589 193.615C77.3702 191.965 75.5875 188.141 76.6444 183.43C76.8768 182.394 77.1568 181.368 77.4171 180.338C77.6856 179.276 77.3921 178.457 76.503 177.807C75.6745 177.202 74.7834 176.666 74.0269 175.981C72.162 174.292 72.3305 169.745 74.9963 168.541C75.1146 168.488 75.211 168.386 75.3322 168.296C74.5537 167.569 73.7401 166.885 73.0146 166.117C71.4661 164.478 71.2956 162.359 72.5275 160.494C73.5712 158.914 74.6785 157.375 75.6882 155.774C76.4525 154.562 76.2494 154.176 75.1414 153.156C74.0542 152.155 72.9171 151.119 72.1481 149.883C71.0792 148.165 70.9794 147.019 72.5612 145.524C74.5653 143.629 76.5997 141.74 78.799 140.085C82.1741 137.546 83.5805 134.187 83.6004 130.091C83.6171 126.649 82.8751 123.312 82.3205 119.941C81.5761 115.416 80.9613 110.861 81.7719 106.272C82.2087 103.799 82.5668 101.289 83.2882 98.8944C84.2832 95.5913 85.8702 92.5316 87.9527 89.7463C91.7587 84.6559 96.4524 80.5112 101.579 76.8148C101.86 76.6123 102.165 76.2133 102.174 75.8978C102.284 71.9486 104.463 69.2604 107.527 67.1645C110.746 64.9628 114.302 63.4846 118.094 62.5714C120.983 61.8759 123.844 61.0346 126.762 60.5005C129.722 59.9585 132.739 59.7212 135.729 59.3375C141.747 58.5655 147.801 58.2503 153.854 58.3675C158.465 58.4567 163.083 58.8603 167.67 59.376C171.117 59.7636 174.52 60.5511 178.027 61.1627ZM191.662 130.228C194.942 131.278 196.782 133.668 197.72 136.842C198.064 138.003 197.984 138.019 199.085 137.49C202.187 136.002 205.275 134.481 208.406 133.057C209.344 132.631 209.344 132.187 208.949 131.383C207.028 127.472 205.143 123.545 203.255 119.618C202.675 118.411 203.207 117.65 204.545 117.602C205.462 117.569 206.42 117.539 207.278 117.259C211.366 115.921 213.498 111.087 211.003 107.04C209.426 104.483 205.921 103.098 203.091 104.105C201.499 104.672 200.296 105.632 199.345 106.997C198.769 107.824 197.633 107.736 197.189 106.825C196.112 104.618 195.088 102.385 194.025 100.171C192.994 98.0226 191.942 95.885 190.874 93.6928C189.41 94.3677 188.007 94.9997 186.617 95.6587C183.879 96.9569 181.172 98.3268 178.404 99.558C176.423 100.439 175.996 100.117 176.042 97.9759C176.134 93.7107 171.744 89.8007 166.97 91.3584C164.185 92.2668 162.404 94.5779 162.2 97.5318C162.039 99.865 163.009 101.772 164.739 103.343C165.239 103.797 165.767 104.42 165.866 105.033C165.918 105.354 165.131 105.952 164.614 106.2C160.65 108.107 156.657 109.952 152.682 111.834C152.218 112.053 152.025 112.371 152.325 112.957C153.209 114.681 154.009 116.448 154.849 118.194C155.949 120.477 157.085 122.743 158.136 125.048C158.35 125.519 158.46 126.239 158.243 126.642C158.069 126.965 157.307 127.154 156.838 127.104C154.18 126.82 151.677 128.333 150.445 130.422C148.747 133.301 149.017 136.432 151.463 138.929C152.927 140.423 154.826 141.121 156.991 140.871C159.172 140.619 160.866 139.583 162.149 137.815C162.823 136.887 163.826 136.981 164.35 137.986C164.487 138.25 164.617 138.517 164.744 138.786C166.67 142.853 168.595 146.92 170.572 151.097C174.437 149.244 178.221 147.429 182.044 145.596C178.687 141.179 178.252 136.708 182.08 132.505C184.586 129.756 187.9 129.081 191.662 130.228ZM168.269 64.1812C167.725 64.28 167.11 64.2489 166.65 64.5006C164.926 65.4427 163.069 65.1999 161.514 64.5447C159.179 63.5604 156.841 63.5876 154.445 63.6122C154.256 63.6141 154.039 63.6827 153.885 63.791C152.736 64.5976 151.615 65.4454 150.453 66.2326C149.708 66.7375 148.915 67.1751 148.126 67.61C147.972 67.695 147.701 67.6974 147.541 67.6201C146.901 67.3121 146.319 66.8088 145.651 66.6556C144.68 66.4328 143.791 65.677 142.661 66.2345C139.52 67.7843 136.349 69.2742 133.193 70.7922C132.938 70.9145 132.701 71.0717 132.449 71.2165C132.878 72.1286 133.255 72.9432 133.641 73.7532C135.289 77.2035 136.952 80.6463 138.582 84.1047C139.213 85.443 138.656 86.2759 137.288 86.1472C132.506 85.6972 128.783 90.287 130.079 94.8914C130.996 98.1469 134.413 100.557 138.01 99.8229C139.82 99.4535 141.26 98.5805 142.362 97.0862C143.36 95.732 144.209 95.8492 144.925 97.3578C146.38 100.422 147.842 103.483 149.306 106.543C149.861 107.703 150.429 108.858 151.037 110.107C154.951 108.239 158.773 106.416 162.627 104.578C159.732 101.28 159.071 97.3828 160.759 93.9654C162.531 90.3795 165.945 88.3661 169.952 88.7988C174.824 89.3249 177.449 92.3129 178.345 97.0716C182.223 95.2115 186.041 93.3797 189.946 91.5064C188.08 87.6034 186.276 83.8324 184.568 80.2612C182.811 81.0474 181.231 81.9664 179.529 82.4568C177.721 82.9774 175.817 82.6944 174.08 81.9253C172.381 81.1734 170.968 80.0319 169.985 78.4054C168.324 75.6592 168.031 72.7967 169.286 69.8342C170.535 66.8857 172.834 65.1216 175.95 64.3394C175.919 64.2533 175.888 64.1672 175.858 64.081C173.379 64.081 170.9 64.081 168.269 64.1812ZM147.475 107.814C146.277 105.352 145.067 102.896 143.888 100.425C143.612 99.8461 143.274 99.4697 142.694 99.963C141.345 101.109 139.803 101.738 138.07 102.057C133.028 102.983 128.064 99.1091 127.611 93.5904C127.263 89.3402 130.552 84.8859 134.808 84.1405C135.15 84.0806 135.471 83.895 135.94 83.7145C134.053 79.8178 132.209 76.0092 130.336 72.1411C129.818 72.3809 129.429 72.5583 129.042 72.7404C125.14 74.5759 121.242 76.4203 117.334 78.2433C116.18 78.7819 115.619 78.349 115.554 77.0985C115.497 75.9959 115.268 74.9022 115.084 73.5819C111.769 75.4707 109.957 77.8958 110.168 81.5582C109.272 81.3249 108.438 80.9729 107.584 80.9168C106.281 80.831 104.823 80.6002 103.684 81.0597C101.773 81.8309 100.963 83.6332 100.792 85.6891C100.708 86.6911 100.85 87.9029 100.338 88.6332C99.5699 89.7294 98.3428 90.5185 97.2631 91.3784C95.8912 92.471 94.4717 93.5038 93.1454 94.5074C94.4729 97.2651 95.6749 99.762 96.8956 102.298C102.32 97.8235 108.418 99.8843 110.829 103.276C112.425 105.522 113.214 108.022 112.563 110.758C111.564 114.954 108.685 117.265 104.55 118.096C104.635 118.448 104.646 118.62 104.715 118.764C106.327 122.151 107.957 125.529 109.55 128.925C109.898 129.665 110.305 129.677 110.969 129.355C114.297 127.742 117.642 126.164 120.981 124.575C121.566 124.296 121.489 123.975 121.18 123.472C120.477 122.33 119.56 121.203 119.271 119.946C118.377 116.056 119.419 112.695 122.682 110.205C126.752 107.1 132.337 108.019 135.232 111.914C136.228 113.254 136.776 114.926 137.561 116.51C137.579 116.506 137.743 116.494 137.882 116.429C141.397 114.781 144.917 113.144 148.402 111.436C148.63 111.324 148.751 110.605 148.637 110.263C148.369 109.459 147.928 108.712 147.475 107.814ZM123.339 148.001C127.15 147.845 130.716 146.644 134.282 145.444C135.298 149.309 135.953 150.587 138.986 151.756C139.7 152.032 140.491 152.793 141.431 151.89C145.25 148.225 151.342 148.591 154.731 152.657C155.909 154.07 157.032 155.529 158.221 157.018C161.702 155.35 165.084 153.729 168.483 152.101C166.604 148.177 164.801 144.41 162.985 140.615C157.512 145.363 150.866 143.073 148.385 138.779C147.032 136.437 146.728 133.935 147.501 131.366C148.675 127.467 151.518 125.446 155.427 124.76C153.558 120.86 151.736 117.059 149.911 113.253C145.552 115.307 141.263 117.338 136.963 119.348C135.7 119.937 135.108 119.471 135.069 118.097C135.04 117.117 134.909 116.105 134.617 115.173C133.552 111.767 129.47 109.736 126.085 110.854C122.404 112.069 120.311 115.968 121.409 119.476C121.907 121.065 122.839 122.304 124.145 123.291C125.259 124.133 125.167 124.979 123.892 125.579C123.413 125.805 122.932 126.031 122.454 126.259C118.93 127.939 115.41 129.627 111.88 131.294C111.201 131.614 110.939 131.91 111.354 132.714C112.398 134.739 113.315 136.828 114.297 138.885C115.247 140.878 116.23 142.856 117.168 144.855C117.688 145.963 117.245 146.607 115.995 146.646C115.85 146.65 115.705 146.661 115.49 146.672C115.602 146.821 115.642 146.931 115.716 146.964C116.009 147.094 116.307 147.224 116.615 147.311C118.754 147.92 120.912 148.372 123.339 148.001ZM178.78 155.12C180.256 154.644 181.747 154.209 183.205 153.683C184.854 153.088 186.47 152.398 188.113 151.783C188.428 151.665 188.834 151.59 189.14 151.685C191.104 152.29 193.051 152.501 195.099 152.022C197.658 151.423 200.237 150.905 202.585 149.679C203.136 149.391 203.856 148.847 203.934 148.334C204.256 146.225 205.032 144.388 206.903 143.326C209.328 141.949 211.026 137.525 209.83 134.806C209.147 135.115 208.458 135.412 207.782 135.736C204.271 137.419 200.761 139.103 197.257 140.802C196.651 141.096 196.14 141.004 195.84 140.438C195.652 140.083 195.59 139.611 195.618 139.201C195.768 136.999 194.881 135.344 193.368 133.746C191.371 131.636 186.75 131.527 184.766 133.096C182.761 134.682 181.707 136.573 181.717 139.165C181.726 141.418 182.72 143.149 184.31 144.521C185.758 145.77 185.827 146.2 184.159 147.011C180.165 148.95 176.162 150.869 172.171 152.812C171.948 152.92 171.638 153.179 171.64 153.364C171.657 154.672 172.666 155.646 174.013 155.585C175.552 155.514 177.085 155.326 178.78 155.12ZM181.262 66.2089C180.854 66.0163 180.446 65.8238 180.037 65.634C179.313 66.4717 179.298 66.4505 177.878 66.4593C173.194 66.4883 170.288 70.4279 170.88 74.4358C171.331 77.4894 173.229 79.5556 176.306 80.2342C179.235 80.8803 181.633 79.8374 183.482 77.5058C184.406 76.3405 185.104 76.394 185.739 77.7128C187.665 81.7132 189.596 85.7116 191.494 89.7252C191.8 90.3716 192.09 90.5405 192.774 90.2089C195.242 89.0114 197.74 87.8752 200.217 86.6967C200.384 86.6176 200.51 86.3964 200.595 86.2136C201.266 84.773 201.296 83.2633 201.227 81.6954C201.112 79.0609 200.066 76.8537 198.395 74.9189C196.986 73.2873 195.039 72.4135 193.097 71.6252C191.545 70.9948 189.921 70.8585 188.205 71.1285C187.466 71.2449 186.469 70.7749 185.83 70.2683C184.275 69.0362 182.86 67.6268 181.262 66.2089ZM94.2203 120.586C94.9236 123.825 96.7529 126.168 99.8013 127.533C99.6916 129.502 100.341 131.178 101.523 132.704C101.994 133.312 102.426 133.342 103.047 133.034C104.37 132.377 105.702 131.734 107.047 131.121C107.753 130.799 107.955 130.428 107.581 129.666C105.655 125.748 103.776 121.808 101.879 117.876C101.207 116.481 101.615 115.891 103.173 115.828C104.704 115.765 106.223 115.648 107.528 114.622C109.78 112.851 110.807 110.577 110.417 107.751C110.036 105 108.372 103.193 105.809 102.296C102.794 101.241 99.7278 102.405 97.9154 104.827C97.6204 105.221 97.1119 105.628 96.6647 105.676C96.3603 105.708 95.8606 105.188 95.6712 104.804C94.399 102.229 93.1865 99.6237 91.8637 96.8367C91.5791 97.5649 91.3635 98.1123 91.151 98.6609C90.0705 101.45 90.2937 104.122 91.8496 106.687C92.7223 108.125 94.1077 108.994 95.4104 109.955C96.1696 110.515 96.4909 111.527 96.01 112.332C94.5169 114.831 94.0603 117.548 94.2203 120.586ZM193.088 92.8658C194.704 96.3179 196.312 99.7738 197.94 103.22C198.421 104.238 198.662 104.215 199.554 103.547C201.757 101.894 204.278 101.018 206.979 101.672C211.078 102.664 214.267 106.173 214.288 110.833C214.306 115.031 210.714 119.007 206.982 119.612C206.304 119.722 205.973 119.927 206.364 120.732C207.935 123.962 209.431 127.228 210.986 130.466C211.161 130.83 211.608 131.405 211.799 131.358C212.496 131.187 213.462 130.961 213.73 130.446C214.238 129.468 214.533 128.282 214.559 127.173C214.614 124.807 214.231 122.485 213.081 120.35C212.966 120.135 212.951 119.798 213.026 119.561C213.998 116.456 214.566 113.305 214.634 110.03C214.7 106.83 213.409 104.264 211.467 101.901C211.053 101.398 210.56 100.949 210.215 100.405C209.261 98.9005 209.208 97.2084 209.163 95.4773C209.128 94.164 208.935 92.7925 208.485 91.567C207.808 89.7218 206.503 88.3056 204.628 87.5329C204.332 87.4112 203.911 87.2978 203.658 87.4159C200.657 88.8144 197.672 90.2474 194.696 91.6982C194.114 91.9821 193.587 92.3804 193.088 92.8658ZM170.389 155.888C170.314 155.74 170.226 155.597 170.167 155.443C169.668 154.165 169.683 154.009 168.105 154.719C165.515 155.886 162.978 157.171 160.419 158.405C159.003 159.088 158.978 159.14 159.331 160.731C163.078 160.731 166.821 160.731 170.501 160.731C170.607 160.007 170.551 159.285 170.83 158.731C171.356 157.684 170.988 156.867 170.389 155.888ZM108.726 132.85C107.236 133.568 105.746 134.285 103.993 135.13C105.412 135.756 106.571 136.399 107.812 136.777C109.017 137.143 109.706 137.945 109.746 139.033C109.811 140.803 110.558 142.178 111.573 143.53C112.544 144.824 112.874 144.967 114.456 144.291C114.372 144.076 114.3 143.855 114.201 143.647C112.698 140.486 111.197 137.325 109.679 134.171C109.453 133.704 109.143 133.277 108.726 132.85ZM117.44 74.5346C117.488 75.0526 117.462 75.8145 118.242 75.5229C119.66 74.9926 121.007 74.2743 122.484 73.5878C120.959 72.7679 119.543 72.6591 116.935 73.0826C117.1 73.5129 117.264 73.9432 117.44 74.5346ZM134.204 67.7276C135.576 67.0466 136.947 66.3657 138.508 65.5903C135.707 65.8689 133.111 66.0788 130.698 67.3853C130.98 67.9733 131.218 68.4697 131.464 68.9813C131.899 68.7783 132.31 68.5821 132.725 68.3941C133.171 68.1921 133.621 67.9978 134.204 67.7276ZM125.731 71.9731C126.438 71.6358 127.139 71.2856 127.853 70.9638C129.435 70.2509 129.439 70.2563 128.718 68.6966C128.697 68.6515 128.622 68.6315 128.465 68.5316C127.167 69.518 125.84 70.5112 125.01 72.2266C125.313 72.1324 125.458 72.0871 125.731 71.9731Z" fill="#FEFFFE"/>
<path d="M191.583 130.215C187.9 129.081 184.586 129.756 182.08 132.505C178.252 136.708 178.687 141.179 182.044 145.596C178.221 147.429 174.437 149.244 170.572 151.097C168.595 146.92 166.67 142.853 164.744 138.786C164.617 138.517 164.487 138.25 164.35 137.986C163.826 136.981 162.823 136.887 162.149 137.815C160.866 139.583 159.172 140.619 156.991 140.871C154.826 141.121 152.927 140.423 151.463 138.929C149.017 136.432 148.747 133.301 150.445 130.422C151.677 128.333 154.18 126.82 156.838 127.104C157.307 127.154 158.069 126.965 158.243 126.642C158.46 126.239 158.35 125.519 158.136 125.048C157.085 122.743 155.949 120.477 154.849 118.194C154.009 116.448 153.209 114.681 152.325 112.957C152.025 112.371 152.218 112.053 152.682 111.834C156.657 109.952 160.65 108.107 164.614 106.2C165.131 105.952 165.918 105.354 165.866 105.033C165.767 104.42 165.239 103.797 164.739 103.343C163.009 101.772 162.039 99.865 162.2 97.5318C162.404 94.5779 164.185 92.2668 166.97 91.3584C171.744 89.8007 176.134 93.7107 176.042 97.9759C175.996 100.117 176.423 100.439 178.404 99.558C181.172 98.3268 183.879 96.9569 186.617 95.6587C188.007 94.9997 189.41 94.3677 190.874 93.6928C191.942 95.885 192.994 98.0226 194.025 100.171C195.088 102.385 196.112 104.618 197.189 106.825C197.633 107.736 198.769 107.824 199.345 106.997C200.296 105.632 201.499 104.672 203.091 104.105C205.921 103.098 209.426 104.483 211.003 107.04C213.498 111.087 211.366 115.921 207.278 117.259C206.42 117.539 205.462 117.569 204.545 117.602C203.207 117.65 202.675 118.411 203.255 119.618C205.143 123.545 207.028 127.472 208.949 131.383C209.344 132.187 209.344 132.631 208.406 133.057C205.275 134.481 202.187 136.002 199.085 137.49C197.984 138.019 198.064 138.003 197.72 136.842C196.782 133.668 194.942 131.278 191.583 130.215Z" fill="#00BD40"/>
<path d="M168.345 64.1311C170.9 64.081 173.379 64.081 175.858 64.081C175.888 64.1672 175.919 64.2533 175.95 64.3394C172.834 65.1216 170.535 66.8857 169.286 69.8342C168.031 72.7967 168.324 75.6592 169.985 78.4054C170.968 80.0319 172.381 81.1734 174.08 81.9253C175.817 82.6944 177.721 82.9774 179.529 82.4568C181.231 81.9664 182.81 81.0473 184.568 80.2612C186.276 83.8324 188.08 87.6034 189.946 91.5064C186.041 93.3797 182.223 95.2115 178.345 97.0716C177.449 92.3129 174.824 89.3249 169.952 88.7988C165.945 88.3661 162.531 90.3795 160.759 93.9654C159.071 97.3828 159.732 101.28 162.627 104.578C158.773 106.416 154.951 108.239 151.037 110.107C150.429 108.858 149.861 107.703 149.306 106.543C147.842 103.483 146.38 100.422 144.925 97.3578C144.209 95.8492 143.36 95.732 142.362 97.0861C141.26 98.5805 139.82 99.4535 138.01 99.8229C134.413 100.557 130.996 98.1469 130.079 94.8914C128.783 90.287 132.506 85.6972 137.288 86.1472C138.656 86.2759 139.213 85.443 138.582 84.1047C136.952 80.6463 135.289 77.2035 133.641 73.7532C133.255 72.9432 132.878 72.1286 132.449 71.2164C132.701 71.0717 132.938 70.9145 133.193 70.7922C136.349 69.2742 139.52 67.7843 142.661 66.2345C143.791 65.677 144.68 66.4328 145.651 66.6556C146.319 66.8088 146.901 67.3121 147.541 67.6201C147.701 67.6974 147.972 67.6949 148.126 67.6099C148.915 67.1751 149.708 66.7375 150.453 66.2326C151.615 65.4454 152.736 64.5976 153.885 63.791C154.039 63.6827 154.256 63.6141 154.445 63.6122C156.841 63.5876 159.179 63.5604 161.514 64.5447C163.069 65.1999 164.926 65.4427 166.65 64.5006C167.11 64.2489 167.725 64.28 168.345 64.1311Z" fill="#0175FF"/>
<path d="M147.516 107.878C147.928 108.712 148.369 109.459 148.637 110.263C148.751 110.605 148.63 111.324 148.402 111.436C144.917 113.144 141.397 114.781 137.882 116.429C137.743 116.494 137.579 116.506 137.561 116.51C136.776 114.926 136.228 113.254 135.232 111.914C132.337 108.019 126.752 107.1 122.682 110.205C119.419 112.695 118.377 116.056 119.271 119.946C119.56 121.203 120.477 122.33 121.18 123.472C121.489 123.975 121.566 124.296 120.981 124.575C117.642 126.164 114.297 127.742 110.969 129.355C110.305 129.677 109.898 129.665 109.55 128.925C107.957 125.529 106.327 122.151 104.715 118.764C104.646 118.62 104.635 118.448 104.55 118.096C108.685 117.265 111.564 114.954 112.563 110.758C113.214 108.022 112.425 105.522 110.829 103.276C108.418 99.8843 102.32 97.8235 96.8956 102.298C95.6749 99.762 94.473 97.2651 93.1454 94.5074C94.4717 93.5038 95.8912 92.471 97.2631 91.3783C98.3428 90.5185 99.5699 89.7294 100.338 88.6332C100.85 87.9029 100.708 86.6911 100.792 85.6891C100.963 83.6332 101.773 81.8309 103.684 81.0597C104.823 80.6002 106.281 80.831 107.584 80.9168C108.438 80.9729 109.272 81.3249 110.168 81.5581C109.957 77.8958 111.769 75.4707 115.084 73.5819C115.268 74.9022 115.497 75.9959 115.554 77.0985C115.619 78.349 116.18 78.7819 117.335 78.2433C121.242 76.4203 125.14 74.5759 129.042 72.7404C129.429 72.5583 129.818 72.3809 130.336 72.1411C132.209 76.0092 134.053 79.8178 135.94 83.7145C135.471 83.895 135.15 84.0806 134.808 84.1405C130.552 84.8858 127.263 89.3402 127.611 93.5904C128.064 99.109 133.028 102.983 138.07 102.057C139.803 101.738 141.345 101.109 142.694 99.963C143.274 99.4696 143.612 99.846 143.888 100.425C145.067 102.896 146.277 105.352 147.516 107.878Z" fill="#FFC401"/>
<path d="M123.247 148.001C120.912 148.372 118.754 147.92 116.615 147.311C116.307 147.224 116.009 147.094 115.716 146.963C115.642 146.931 115.602 146.821 115.49 146.672C115.705 146.661 115.85 146.65 115.995 146.646C117.245 146.607 117.688 145.963 117.168 144.855C116.23 142.856 115.247 140.878 114.297 138.885C113.315 136.828 112.398 134.739 111.354 132.714C110.939 131.91 111.201 131.614 111.88 131.294C115.41 129.627 118.93 127.939 122.454 126.259C122.932 126.031 123.413 125.805 123.892 125.579C125.167 124.979 125.259 124.133 124.145 123.291C122.839 122.304 121.907 121.065 121.409 119.476C120.311 115.968 122.404 112.069 126.085 110.854C129.47 109.736 133.552 111.767 134.617 115.173C134.909 116.105 135.04 117.117 135.069 118.097C135.108 119.471 135.7 119.937 136.963 119.348C141.263 117.338 145.552 115.307 149.911 113.253C151.736 117.059 153.558 120.86 155.427 124.76C151.518 125.446 148.675 127.467 147.501 131.366C146.728 133.935 147.032 136.437 148.385 138.779C150.866 143.073 157.512 145.363 162.985 140.615C164.801 144.41 166.604 148.177 168.483 152.101C165.084 153.729 161.702 155.35 158.221 157.018C157.032 155.529 155.909 154.07 154.731 152.657C151.342 148.591 145.25 148.225 141.431 151.89C140.491 152.793 139.7 152.032 138.986 151.756C135.953 150.587 135.298 149.309 134.282 145.444C130.716 146.644 127.15 147.845 123.247 148.001Z" fill="#FF0539"/>
<path d="M178.701 155.154C177.085 155.326 175.552 155.514 174.013 155.585C172.666 155.646 171.657 154.672 171.64 153.364C171.638 153.179 171.948 152.92 172.171 152.812C176.162 150.869 180.165 148.95 184.159 147.011C185.827 146.2 185.758 145.77 184.31 144.521C182.72 143.149 181.726 141.418 181.717 139.165C181.707 136.573 182.761 134.682 184.766 133.096C186.75 131.527 191.371 131.636 193.368 133.746C194.881 135.344 195.768 136.999 195.618 139.201C195.59 139.611 195.652 140.083 195.84 140.438C196.14 141.004 196.651 141.096 197.257 140.802C200.761 139.103 204.271 137.419 207.782 135.736C208.458 135.412 209.147 135.115 209.83 134.806C211.026 137.525 209.328 141.949 206.903 143.326C205.032 144.388 204.256 146.225 203.934 148.334C203.856 148.847 203.136 149.391 202.585 149.679C200.237 150.905 197.658 151.423 195.099 152.022C193.051 152.501 191.104 152.29 189.14 151.685C188.834 151.59 188.428 151.665 188.113 151.783C186.47 152.398 184.854 153.088 183.205 153.683C181.747 154.208 180.256 154.644 178.701 155.154Z" fill="#0075FF"/>
<path d="M181.326 66.2489C182.86 67.6268 184.275 69.0362 185.83 70.2683C186.469 70.7749 187.466 71.2449 188.205 71.1285C189.921 70.8585 191.545 70.9948 193.097 71.6252C195.039 72.4135 196.986 73.2873 198.395 74.9189C200.066 76.8537 201.112 79.0609 201.227 81.6954C201.296 83.2633 201.266 84.7729 200.595 86.2136C200.51 86.3964 200.384 86.6176 200.217 86.6967C197.74 87.8752 195.242 89.0114 192.774 90.2089C192.09 90.5405 191.8 90.3716 191.494 89.7252C189.596 85.7116 187.665 81.7132 185.739 77.7128C185.104 76.394 184.406 76.3404 183.482 77.5058C181.633 79.8373 179.235 80.8803 176.306 80.2342C173.229 79.5556 171.331 77.4894 170.88 74.4358C170.288 70.4279 173.194 66.4883 177.878 66.4593C179.298 66.4505 179.313 66.4717 180.037 65.6326C180.446 65.8238 180.854 66.0163 181.326 66.2489Z" fill="#FF053A"/>
<path d="M94.2125 120.496C94.0603 117.548 94.517 114.831 96.01 112.332C96.4909 111.527 96.1697 110.515 95.4104 109.955C94.1077 108.994 92.7223 108.125 91.8496 106.687C90.2937 104.122 90.0705 101.45 91.151 98.6609C91.3635 98.1123 91.5791 97.5649 91.8637 96.8367C93.1865 99.6237 94.399 102.229 95.6712 104.804C95.8606 105.188 96.3603 105.708 96.6647 105.676C97.112 105.628 97.6204 105.221 97.9154 104.827C99.7278 102.405 102.794 101.241 105.809 102.296C108.372 103.193 110.036 105 110.417 107.751C110.807 110.577 109.78 112.851 107.528 114.622C106.223 115.648 104.704 115.765 103.173 115.828C101.615 115.891 101.207 116.481 101.879 117.876C103.776 121.808 105.655 125.748 107.581 129.666C107.955 130.428 107.753 130.799 107.047 131.121C105.702 131.734 104.37 132.377 103.047 133.034C102.426 133.342 101.994 133.312 101.523 132.704C100.341 131.178 99.6916 129.502 99.8013 127.533C96.7529 126.168 94.9236 123.825 94.2125 120.496Z" fill="#00BD41"/>
<path d="M193.061 92.7959C193.587 92.3804 194.114 91.9821 194.696 91.6982C197.672 90.2474 200.657 88.8144 203.658 87.4159C203.911 87.2978 204.332 87.4112 204.628 87.5329C206.503 88.3056 207.808 89.7218 208.485 91.567C208.935 92.7925 209.128 94.164 209.163 95.4773C209.208 97.2084 209.261 98.9005 210.215 100.405C210.56 100.949 211.053 101.398 211.467 101.901C213.409 104.264 214.7 106.83 214.634 110.03C214.566 113.305 213.998 116.456 213.026 119.561C212.951 119.798 212.966 120.135 213.081 120.35C214.231 122.485 214.614 124.807 214.559 127.173C214.533 128.282 214.238 129.468 213.73 130.446C213.462 130.961 212.496 131.187 211.799 131.358C211.608 131.405 211.161 130.83 210.986 130.466C209.431 127.228 207.935 123.962 206.364 120.732C205.973 119.927 206.304 119.722 206.982 119.612C210.714 119.007 214.306 115.031 214.288 110.833C214.267 106.173 211.078 102.664 206.979 101.672C204.278 101.018 201.757 101.894 199.554 103.547C198.662 104.215 198.421 104.238 197.94 103.22C196.312 99.7738 194.704 96.3179 193.061 92.7959Z" fill="#FFC502"/>
<path d="M170.428 155.953C170.988 156.867 171.356 157.684 170.83 158.731C170.551 159.285 170.607 160.007 170.501 160.731C166.821 160.731 163.078 160.731 159.331 160.731C158.978 159.14 159.003 159.088 160.419 158.405C162.978 157.171 165.515 155.886 168.105 154.719C169.683 154.009 169.668 154.165 170.167 155.443C170.226 155.597 170.314 155.74 170.428 155.953Z" fill="#FFC503"/>
<path d="M108.799 132.841C109.143 133.277 109.453 133.704 109.679 134.171C111.197 137.325 112.698 140.486 114.201 143.647C114.3 143.855 114.372 144.076 114.456 144.291C112.874 144.967 112.544 144.824 111.573 143.53C110.558 142.178 109.811 140.803 109.746 139.033C109.706 137.945 109.017 137.143 107.812 136.777C106.571 136.399 105.412 135.756 103.993 135.13C105.746 134.285 107.236 133.568 108.799 132.841Z" fill="#0378FF"/>
<path d="M117.434 74.4541C117.264 73.9432 117.1 73.5129 116.934 73.0829C119.543 72.6591 120.959 72.7679 122.484 73.5878C121.007 74.2743 119.66 74.9926 118.242 75.5229C117.462 75.8145 117.488 75.0526 117.434 74.4541Z" fill="#FF1344"/>
<path d="M134.137 67.7639C133.621 67.9978 133.171 68.1921 132.725 68.3941C132.31 68.5821 131.899 68.7783 131.464 68.9813C131.218 68.4697 130.98 67.9733 130.698 67.3853C133.111 66.0788 135.707 65.8689 138.508 65.5903C136.947 66.3657 135.576 67.0466 134.137 67.7639Z" fill="#02BD43"/>
<path d="M125.668 72.0075C125.458 72.0871 125.313 72.1324 125.01 72.2266C125.84 70.5112 127.167 69.518 128.465 68.5316C128.622 68.6315 128.697 68.6515 128.718 68.6966C129.439 70.2563 129.435 70.2509 127.853 70.9638C127.139 71.2856 126.438 71.6358 125.668 72.0075Z" fill="#FF1546"/>
</g>
<defs>
<linearGradient id="paint0_linear_10_23" x1="300" y1="303.5" x2="0" y2="0" gradientUnits="userSpaceOnUse">
<stop stop-color="#FFE4E6"/>
<stop offset="1" stop-color="#E3F2FD"/>
</linearGradient>
</defs>
</svg>
