<svg width="17" height="17" viewBox="0 0 17 17" fill="none" xmlns="http://www.w3.org/2000/svg">
<g clip-path="url(#clip0_1_479)">
<path d="M13.5543 8.21912C13.4992 7.18613 13.1318 6.19237 12.4984 5.36378C12.3054 5.56698 12.0992 5.75769 11.8809 5.93472C11.2103 6.4793 10.4609 6.92381 9.65709 7.25378C9.76919 7.48347 9.87189 7.70594 9.9625 7.91594V7.91791C9.98807 7.97658 10.0127 8.03565 10.0363 8.09509C11.0526 7.98353 12.1239 8.02422 13.1623 8.16138C13.3005 8.17975 13.4308 8.19944 13.5543 8.21912ZM7.25475 3.33006C7.90889 4.23121 8.51211 5.16667 9.06171 6.13225C9.88263 5.81594 10.5612 5.41694 11.1076 4.97266C11.2973 4.81984 11.4758 4.65428 11.6419 4.47719C10.676 3.68294 9.45392 3.24825 8.19179 3.25C7.87768 3.24979 7.56414 3.27636 7.25475 3.32941V3.33006ZM2.99175 7.18553C3.44901 7.17425 3.90573 7.14733 4.36106 7.10481C5.46164 7.00857 6.55283 6.82821 7.6246 6.56537C7.06446 5.61395 6.45971 4.68831 5.81227 3.79141C5.12071 4.12635 4.51092 4.6028 4.02427 5.18842C3.53762 5.77405 3.18548 6.45515 2.99175 7.18553ZM4.01874 11.8042C4.27917 11.4321 4.6215 11.0134 5.07593 10.558C6.0519 9.58019 7.20374 8.81894 8.5368 8.39894L8.57842 8.38713C8.46767 8.14825 8.36363 7.93497 8.25891 7.73416C7.02653 8.08525 5.72837 8.30444 4.4349 8.41797C3.80394 8.47375 3.23809 8.49803 2.82193 8.50197C2.82074 9.70461 3.24366 10.8709 4.01941 11.8042H4.01874ZM10.2088 13.3661C9.95 12.0899 9.5836 10.8367 9.11339 9.61956C7.76959 10.0967 6.69897 10.7942 5.87134 11.6264C5.53734 11.9561 5.24093 12.3202 4.98732 12.7125C5.91283 13.3876 7.03705 13.7516 8.19179 13.75C8.8831 13.751 9.56806 13.621 10.2088 13.3674V13.3661ZM11.4661 12.6606C12.514 11.873 13.2279 10.735 13.471 9.46469C13.2428 9.40891 12.9535 9.35313 12.6354 9.30981C11.928 9.21022 11.2102 9.20294 10.5008 9.28816C10.9003 10.3899 11.2227 11.5169 11.4661 12.6613V12.6606ZM8.19179 15.0625C4.48457 15.0625 1.47946 12.1245 1.47946 8.5C1.47946 4.87553 4.48457 1.9375 8.19179 1.9375C11.899 1.9375 14.9041 4.87553 14.9041 8.5C14.9041 12.1245 11.899 15.0625 8.19179 15.0625Z" fill="white"/>
</g>
<defs>
<clipPath id="clip0_1_479">
<rect width="16.1096" height="15.75" fill="white" transform="translate(0.136993 0.625)"/>
</clipPath>
</defs>
</svg>
