<svg width="16" height="16" viewBox="0 0 16 16" fill="none" xmlns="http://www.w3.org/2000/svg">
<path d="M14 8C14 6.74634 13.6073 5.52417 12.8771 4.50513C12.1469 3.4861 11.1158 2.7214 9.92864 2.31842C8.74151 1.91544 7.45797 1.89444 6.25829 2.25836C5.05861 2.62228 4.00306 3.35284 3.23988 4.34743C2.4767 5.34203 2.04423 6.5507 2.00321 7.80369C1.96219 9.05667 2.31469 10.291 3.01118 11.3334C3.70768 12.3758 4.71319 13.1738 5.8865 13.6154C7.05981 14.057 8.34197 14.12 9.55291 13.7956" stroke="white" stroke-width="2" stroke-linecap="round"/>
<circle cx="8.00001" cy="8.00001" r="2.66667" stroke="white" stroke-width="2"/>
<path d="M10.6667 6V9C10.6667 9.92047 11.4128 10.6667 12.3333 10.6667V10.6667C13.2538 10.6667 14 9.92047 14 9V8" stroke="white" stroke-width="2" stroke-linecap="round"/>
</svg>
