<svg width="17" height="17" viewBox="0 0 17 17" fill="none" xmlns="http://www.w3.org/2000/svg">
<g clip-path="url(#clip0_1_467)">
<path d="M8.68493 1.9375C10.5087 1.9375 10.7362 1.94406 11.4518 1.97687C12.1666 2.00969 12.6533 2.11928 13.0815 2.28203C13.5245 2.44872 13.8977 2.67447 14.2709 3.03869C14.6122 3.36674 14.8764 3.76357 15.0449 4.20156C15.2107 4.61959 15.3234 5.09603 15.357 5.79494C15.3885 6.4945 15.3973 6.71697 15.3973 8.5C15.3973 10.283 15.3905 10.5055 15.357 11.2051C15.3234 11.904 15.2107 12.3797 15.0449 12.7984C14.8768 13.2367 14.6127 13.6336 14.2709 13.9613C13.9353 14.2949 13.5294 14.5531 13.0815 14.718C12.6539 14.8801 12.1666 14.9903 11.4518 15.0231C10.7362 15.054 10.5087 15.0625 8.68493 15.0625C6.86119 15.0625 6.63364 15.0559 5.91811 15.0231C5.20325 14.9903 4.7166 14.8801 4.28836 14.718C3.84019 14.5536 3.43423 14.2953 3.09893 13.9613C2.75755 13.6333 2.49343 13.2365 2.325 12.7984C2.15853 12.3804 2.04644 11.904 2.01288 11.2051C1.98133 10.5055 1.9726 10.283 1.9726 8.5C1.9726 6.71697 1.97932 6.4945 2.01288 5.79494C2.04644 5.09537 2.15853 4.62025 2.325 4.20156C2.49297 3.76331 2.75714 3.36637 3.09893 3.03869C3.43433 2.70481 3.84026 2.44657 4.28836 2.28203C4.7166 2.11928 5.20258 2.00969 5.91811 1.97687C6.63364 1.94603 6.86119 1.9375 8.68493 1.9375ZM8.68493 5.21875C7.79482 5.21875 6.94117 5.56445 6.31177 6.17981C5.68236 6.79516 5.32877 7.62976 5.32877 8.5C5.32877 9.37024 5.68236 10.2048 6.31177 10.8202C6.94117 11.4355 7.79482 11.7812 8.68493 11.7812C9.57504 11.7812 10.4287 11.4355 11.0581 10.8202C11.6875 10.2048 12.0411 9.37024 12.0411 8.5C12.0411 7.62976 11.6875 6.79516 11.0581 6.17981C10.4287 5.56445 9.57504 5.21875 8.68493 5.21875ZM13.0479 5.05469C13.0479 4.83713 12.9595 4.62848 12.8022 4.47464C12.6448 4.3208 12.4314 4.23438 12.2089 4.23438C11.9864 4.23438 11.773 4.3208 11.6156 4.47464C11.4583 4.62848 11.3699 4.83713 11.3699 5.05469C11.3699 5.27225 11.4583 5.4809 11.6156 5.63474C11.773 5.78857 11.9864 5.875 12.2089 5.875C12.4314 5.875 12.6448 5.78857 12.8022 5.63474C12.9595 5.4809 13.0479 5.27225 13.0479 5.05469ZM8.68493 6.53125C9.219 6.53125 9.73119 6.73867 10.1088 7.10788C10.4865 7.4771 10.6986 7.97786 10.6986 8.5C10.6986 9.02214 10.4865 9.5229 10.1088 9.89212C9.73119 10.2613 9.219 10.4688 8.68493 10.4688C8.15087 10.4688 7.63867 10.2613 7.26103 9.89212C6.88339 9.5229 6.67123 9.02214 6.67123 8.5C6.67123 7.97786 6.88339 7.4771 7.26103 7.10788C7.63867 6.73867 8.15087 6.53125 8.68493 6.53125Z" fill="white"/>
</g>
<defs>
<clipPath id="clip0_1_467">
<rect width="16.1096" height="15.75" fill="white" transform="translate(0.630135 0.625)"/>
</clipPath>
</defs>
</svg>
