<svg width="17" height="17" viewBox="0 0 17 17" fill="none" xmlns="http://www.w3.org/2000/svg">
<g clip-path="url(#clip0_1_473)">
<path d="M5.04193 3.90627C5.04175 4.25436 4.90014 4.58813 4.64825 4.83415C4.39637 5.08017 4.05483 5.21828 3.69879 5.21811C3.34275 5.21794 3.00135 5.07949 2.74972 4.83322C2.49808 4.58696 2.35682 4.25305 2.35699 3.90495C2.35717 3.55686 2.49878 3.22309 2.75067 2.97707C3.00256 2.73105 3.34409 2.59294 3.70013 2.59311C4.05618 2.59328 4.39757 2.73173 4.6492 2.978C4.90084 3.22426 5.0421 3.55817 5.04193 3.90627ZM5.0822 6.19002H2.39727V14.4063H5.0822V6.19002ZM9.32439 6.19002H6.65289V14.4063H9.29754V10.0947C9.29754 7.69283 12.4993 7.4697 12.4993 10.0947V14.4063H15.1507V9.2022C15.1507 5.15314 10.4118 5.30408 9.29754 7.29252L9.32439 6.19002Z" fill="white"/>
</g>
<defs>
<clipPath id="clip0_1_473">
<rect width="16.1096" height="15.75" fill="white" transform="translate(0.383575 0.625)"/>
</clipPath>
</defs>
</svg>
