<svg width="16" height="16" viewBox="0 0 16 16" fill="none" xmlns="http://www.w3.org/2000/svg">
<path d="M10.3456 10.927C7.39848 10.927 5.00081 8.44729 5 5.40041C5.00081 4.62806 5.6091 4 6.35454 4C6.43119 4 6.50701 4.00667 6.57962 4.02002C6.73936 4.04754 6.89104 4.10343 7.03061 4.18767C7.05077 4.20018 7.06449 4.2202 7.06771 4.24355L7.37912 6.27285C7.38315 6.29621 7.37589 6.3204 7.36057 6.33791C7.18873 6.53476 6.96929 6.67655 6.72484 6.74744L6.60706 6.78164L6.65143 6.89924C7.05319 7.95685 7.87124 8.80177 8.89502 9.21881L9.00877 9.26551L9.04184 9.14374C9.11041 8.89102 9.24757 8.66415 9.43796 8.48649C9.45167 8.47315 9.47023 8.46647 9.48879 8.46647C9.49282 8.46647 9.49686 8.46647 9.5017 8.4673L11.4645 8.78926C11.4879 8.79343 11.5073 8.80677 11.5194 8.82762C11.6001 8.97192 11.6541 9.12956 11.6816 9.29471C11.6945 9.36811 11.7001 9.44567 11.7001 9.52658C11.7001 10.2981 11.0926 10.9262 10.3456 10.927Z" fill="white"/>
<path d="M15.9699 7.28648C15.8004 5.30605 14.9226 3.46886 13.4984 2.11388C12.0656 0.75089 10.2069 0 8.26289 0C3.99634 0 0.524937 3.58897 0.524937 8C0.524937 9.48042 0.919916 10.9226 1.66772 12.1788L0 15.9955L5.33965 15.4075C6.26817 15.8007 7.2509 16 8.26203 16C8.52794 16 8.80073 15.9858 9.07439 15.9564C9.31534 15.9297 9.55887 15.8906 9.7981 15.8407C13.3711 15.0943 15.9793 11.8158 16 8.04271V8C16 7.75978 15.9897 7.51957 15.969 7.28736L15.9699 7.28648ZM5.54532 13.7322L2.59109 14.0578L3.47314 12.0374L3.29673 11.7927C3.28382 11.7749 3.27091 11.7571 3.25629 11.7367C2.49041 10.6432 2.08594 9.35142 2.08594 8.00089C2.08594 4.47954 4.85688 1.61477 8.26289 1.61477C11.4538 1.61477 14.1584 4.18861 14.4192 7.4742C14.433 7.65036 14.4407 7.8274 14.4407 8.00178C14.4407 8.0516 14.4398 8.10053 14.439 8.15302C14.3736 11.0988 12.3832 13.6005 9.59845 14.2375C9.3859 14.2865 9.16818 14.3238 8.95132 14.3479C8.72586 14.3746 8.49438 14.3879 8.26462 14.3879C7.44624 14.3879 6.65111 14.2242 5.89986 13.9004C5.81639 13.8657 5.73463 13.8283 5.65804 13.79L5.54618 13.734L5.54532 13.7322Z" fill="white"/>
</svg>
