<svg width="25" height="25" viewBox="0 0 25 25" fill="none" xmlns="http://www.w3.org/2000/svg">
<g clip-path="url(#clip0_26_232)">
<path d="M9.37498 13.5417V16.6667H15.625V13.5417H22.9166V20.8334C22.9166 21.1096 22.8069 21.3746 22.6115 21.5699C22.4162 21.7653 22.1512 21.875 21.875 21.875H3.12498C2.84871 21.875 2.58376 21.7653 2.38841 21.5699C2.19306 21.3746 2.08331 21.1096 2.08331 20.8334V13.5417H9.37498ZM11.4583 11.4584H13.5416V14.5834H11.4583V11.4584ZM7.29165 5.20835V2.08335C7.29165 1.80709 7.40139 1.54213 7.59674 1.34678C7.79209 1.15143 8.05705 1.04169 8.33331 1.04169H16.6666C16.9429 1.04169 17.2079 1.15143 17.4032 1.34678C17.5986 1.54213 17.7083 1.80709 17.7083 2.08335V5.20835H21.875C22.1512 5.20835 22.4162 5.3181 22.6115 5.51345C22.8069 5.7088 22.9166 5.97375 22.9166 6.25002V11.4584H15.625V9.37502H9.37498V11.4584H2.08331V6.25002C2.08331 5.97375 2.19306 5.7088 2.38841 5.51345C2.58376 5.3181 2.84871 5.20835 3.12498 5.20835H7.29165ZM9.37498 3.12502V5.20835H15.625V3.12502H9.37498Z" fill="white"/>
</g>
<defs>
<clipPath id="clip0_26_232">
<rect width="25" height="25" fill="white"/>
</clipPath>
</defs>
</svg>
