<svg width="25" height="25" viewBox="0 0 25 25" fill="none" xmlns="http://www.w3.org/2000/svg">
<g clip-path="url(#clip0_1_363)">
<path d="M17.7273 15.6555L12.8472 20.3137L7.96723 15.6555C4.30977 15.8069 1.38892 18.6634 1.38892 22.1887V22.6575C1.38892 23.9514 2.48871 25.0013 3.84427 25.0013H21.8502C23.2058 25.0013 24.3056 23.9514 24.3056 22.6575V22.1887C24.3056 18.6634 21.3847 15.8069 17.7273 15.6555V15.6555ZM2.0846 3.89771L2.41198 3.97095V6.82252C2.05391 7.0276 1.79814 7.38404 1.79814 7.81373C1.79814 8.22389 2.03345 8.56568 2.36594 8.77564L1.56795 11.8176C1.48099 12.1546 1.67537 12.5012 1.95672 12.5012H4.09492C4.37627 12.5012 4.57065 12.1546 4.48369 11.8176L3.6857 8.77564C4.01819 8.56568 4.2535 8.22389 4.2535 7.81373C4.2535 7.38404 3.99773 7.0276 3.63966 6.82252V4.25416L7.01578 5.03052C6.57586 5.87037 6.29963 6.80787 6.29963 7.81373C6.29963 11.2659 9.23071 14.0637 12.8472 14.0637C16.4638 14.0637 19.3949 11.2659 19.3949 7.81373C19.3949 6.80787 19.1238 5.87037 18.6787 5.03052L23.6048 3.89771C24.5358 3.68287 24.5358 2.57447 23.6048 2.35962L13.8652 0.113526C13.2002 -0.0378418 12.4994 -0.0378418 11.8344 0.113526L2.0846 2.35474C1.15873 2.56958 1.15873 3.68287 2.0846 3.89771V3.89771Z" fill="#767676"/>
</g>
<defs>
<clipPath id="clip0_1_363">
<rect width="25" height="25" fill="white"/>
</clipPath>
</defs>
</svg>
