<svg width="22" height="25" viewBox="0 0 22 25" fill="none" xmlns="http://www.w3.org/2000/svg">
<path d="M22 5.95415V6.25H14.6667V0H15.0138C15.3785 0 15.7282 0.123486 15.9861 0.343213L21.5973 5.12549C21.8551 5.34528 22 5.64335 22 5.95415ZM14.2083 7.8125C13.4521 7.8125 12.8333 7.28516 12.8333 6.64062V0H1.375C0.615599 0 0 0.524658 0 1.17188V23.8281C0 24.4753 0.615599 25 1.375 25H20.625C21.3844 25 22 24.4753 22 23.8281V7.8125H14.2083ZM7.05868 19.5559C7.03089 19.5812 6.99754 19.6015 6.96052 19.6158C6.9235 19.6301 6.88355 19.638 6.84294 19.6391C6.80233 19.6402 6.76187 19.6345 6.72385 19.6223C6.68583 19.6101 6.65101 19.5916 6.62137 19.5679L2.90509 16.5986C2.87422 16.5739 2.84962 16.5441 2.8328 16.511C2.81599 16.478 2.80731 16.4423 2.80731 16.4062C2.80731 16.3702 2.81599 16.3345 2.8328 16.3014C2.84962 16.2683 2.87422 16.2385 2.90509 16.2139L6.62137 13.2445C6.65101 13.2208 6.68583 13.2024 6.72385 13.1902C6.76187 13.1779 6.80233 13.1722 6.84294 13.1733C6.88355 13.1745 6.9235 13.1824 6.96052 13.1967C6.99754 13.2109 7.03089 13.2313 7.05868 13.2565L8.18039 14.2763C8.20874 14.3021 8.23072 14.3325 8.24503 14.3656C8.25935 14.3988 8.2657 14.434 8.26371 14.4693C8.26172 14.5046 8.25143 14.5392 8.23346 14.571C8.21549 14.6028 8.19019 14.6313 8.15908 14.6546L5.8237 16.4062L8.15908 18.1579C8.19019 18.1812 8.21549 18.2097 8.23346 18.2415C8.25143 18.2733 8.26172 18.3079 8.26371 18.3432C8.2657 18.3785 8.25935 18.4137 8.24503 18.4469C8.23072 18.48 8.20874 18.5104 8.18039 18.5362L7.05868 19.5559V19.5559ZM9.99745 22.0207L8.42463 21.6315C8.34583 21.612 8.27935 21.5666 8.23981 21.5054C8.20026 21.4441 8.19088 21.3719 8.21373 21.3048L11.7337 10.9715C11.7566 10.9043 11.8099 10.8477 11.8818 10.814C11.9537 10.7803 12.0383 10.7723 12.1171 10.7917L13.6899 11.1809C13.7289 11.1906 13.7653 11.2067 13.797 11.2283C13.8288 11.25 13.8551 11.2767 13.8747 11.3071C13.8943 11.3374 13.9067 11.3707 13.9111 11.4052C13.9156 11.4396 13.9121 11.4744 13.9007 11.5077L10.3807 21.841C10.3694 21.8742 10.3505 21.9053 10.3252 21.9323C10.2998 21.9593 10.2684 21.9818 10.2328 21.9985C10.1972 22.0152 10.1581 22.0258 10.1177 22.0296C10.0773 22.0334 10.0365 22.0304 9.99745 22.0207V22.0207ZM19.2095 16.5986L15.4932 19.5679C15.4636 19.5916 15.4288 19.6101 15.3907 19.6223C15.3527 19.6345 15.3122 19.6402 15.2716 19.6391C15.231 19.638 15.1911 19.6301 15.1541 19.6158C15.117 19.6015 15.0837 19.5812 15.0559 19.5559L13.9341 18.5361C13.9058 18.5104 13.8838 18.48 13.8695 18.4468C13.8552 18.4137 13.8488 18.3784 13.8508 18.3432C13.8528 18.3079 13.8631 18.2733 13.8811 18.2415C13.899 18.2096 13.9243 18.1812 13.9554 18.1579L16.2909 16.4062L13.9555 14.6546C13.9244 14.6313 13.8991 14.6028 13.8811 14.571C13.8631 14.5392 13.8529 14.5046 13.8509 14.4693C13.8489 14.434 13.8552 14.3988 13.8696 14.3656C13.8839 14.3325 13.9058 14.3021 13.9342 14.2763L15.056 13.2565C15.0838 13.2313 15.1171 13.2109 15.1541 13.1967C15.1911 13.1824 15.2311 13.1745 15.2717 13.1733C15.3123 13.1722 15.3528 13.1779 15.3908 13.1902C15.4288 13.2024 15.4636 13.2208 15.4933 13.2445L19.2096 16.2139C19.2404 16.2385 19.265 16.2683 19.2818 16.3014C19.2986 16.3345 19.3073 16.3702 19.3073 16.4062C19.3073 16.4423 19.2986 16.478 19.2818 16.5111C19.265 16.5441 19.2404 16.5739 19.2095 16.5986V16.5986Z" fill="#767676"/>
</svg>
