<svg width="25" height="25" viewBox="0 0 25 25" fill="none" xmlns="http://www.w3.org/2000/svg">
<g clip-path="url(#clip0_1_347)">
<path d="M12.9167 22.5C7.16354 22.5 2.5 17.8365 2.5 12.0833C2.5 6.33021 7.16354 1.66667 12.9167 1.66667C18.6698 1.66667 23.3333 6.33021 23.3333 12.0833C23.3333 17.8365 18.6698 22.5 12.9167 22.5ZM5.96771 16.6927C6.65238 17.7171 7.5557 18.5769 8.61261 19.2103C9.66952 19.8436 10.8537 20.2347 12.0799 20.3554C13.3062 20.476 14.5439 20.3233 15.704 19.9081C16.8641 19.4929 17.9176 18.8257 18.7889 17.9544C19.6601 17.0831 20.3272 16.0294 20.7423 14.8693C21.1574 13.7092 21.31 12.4714 21.1892 11.2452C21.0685 10.019 20.6773 8.83486 20.0438 7.77801C19.4104 6.72115 18.5505 5.81791 17.526 5.13333C17.9752 6.73565 17.9896 8.42867 17.5678 10.0384C17.146 11.6481 16.3032 13.1165 15.126 14.2927C13.95 15.4697 12.4817 16.3124 10.8722 16.7342C9.26268 17.156 7.56988 17.1417 5.96771 16.6927V16.6927Z" fill="#767676"/>
</g>
<defs>
<clipPath id="clip0_1_347">
<rect width="25" height="25" fill="white"/>
</clipPath>
</defs>
</svg>
